<svg width="80" height="80" viewBox="0 0 80 80" fill="none" xmlns="http://www.w3.org/2000/svg">
<rect width="80" height="80" rx="40" fill="#A0CA4B"/>
<g clip-path="url(#clip0_34_117)">
<path d="M56.4436 46.2333C57.3104 46.2333 58.0497 46.5392 58.6616 47.1511C59.2734 47.7629 59.5794 48.5022 59.5794 49.369V56.5583C59.5794 57.4251 59.2734 58.1645 58.6616 58.7763C58.0497 59.3882 57.3104 59.6941 56.4436 59.6941C51.5488 59.6941 46.8834 58.7381 42.4474 56.826C38.0115 54.914 34.1874 52.3518 30.9751 49.1396C27.7629 45.9274 25.2008 42.1033 23.2887 37.6673C21.3767 33.2314 20.4207 28.566 20.4207 23.6711C20.4207 22.8044 20.7266 22.065 21.3384 21.4532C21.9503 20.8413 22.6896 20.5354 23.5564 20.5354H30.7457C31.6125 20.5354 32.3518 20.8413 32.9637 21.4532C33.5755 22.065 33.8815 22.8044 33.8815 23.6711C33.8815 26.0676 34.2639 28.413 35.0287 30.7075C35.3856 31.9312 35.1307 32.9764 34.2639 33.8432L30.9751 38.2027C32.3518 40.7011 33.8815 42.8044 35.5641 44.5124C37.2467 46.2205 39.3627 47.7629 41.9121 49.1396L46.348 45.7744C46.7049 45.4175 47.1765 45.1753 47.7629 45.0478C48.3493 44.9204 48.9229 44.9586 49.4838 45.1625C51.7272 45.8764 54.0472 46.2333 56.4436 46.2333Z" fill="white"/>
</g>
<defs>
<clipPath id="clip0_34_117">
<rect width="40" height="40" fill="white" transform="matrix(1 0 0 -1 20 60)"/>
</clipPath>
</defs>
</svg>
