<svg width="80" height="80" viewBox="0 0 80 80" fill="none" xmlns="http://www.w3.org/2000/svg">
<rect width="80" height="80" rx="40" fill="#A0CA4B"/>
<path d="M40.0786 21.8549C29.7867 21.8549 21.4109 29.9222 21.4073 39.8367C21.4048 43.0073 22.2661 46.1016 23.8992 48.827L21.25 58.1452L31.1488 55.6448C33.9023 57.0851 36.9639 57.8364 40.0714 57.8343H40.0786C50.3706 57.8343 58.7464 49.7657 58.75 39.8512C58.7524 35.0488 56.8121 30.5282 53.2859 27.1303C49.7609 23.7311 45.0734 21.8561 40.0786 21.8549ZM40.0786 54.7968H40.0726C37.2879 54.7968 34.5565 54.0758 32.1734 52.7137L31.6048 52.3895L25.7331 53.8726L27.3008 48.3565L26.9319 47.7916C25.3821 45.428 24.5572 42.663 24.5585 39.8367C24.5621 31.5952 31.525 24.8924 40.0847 24.8924C44.229 24.8936 48.1254 26.4504 51.0564 29.275C53.9875 32.0996 55.6 35.8557 55.5976 39.85C55.5939 48.0916 48.6323 54.7968 40.0774 54.7968H40.0786ZM48.5911 43.6012C48.1242 43.3774 45.8306 42.2899 45.4024 42.1387C44.9754 41.9899 44.6645 41.9125 44.3536 42.3625C44.044 42.8125 43.1488 43.825 42.8778 44.1238C42.6044 44.4238 42.3323 44.4601 41.8653 44.2363C41.3984 44.0113 39.8948 43.5371 38.1141 42.0057C36.7266 40.8153 35.7903 39.3444 35.5181 38.8932C35.246 38.4444 35.4891 38.2012 35.7226 37.9774C35.9319 37.7778 36.1895 37.4536 36.4218 37.1911C36.654 36.9286 36.7315 36.7411 36.8887 36.4411C37.0435 36.1424 36.9661 35.8786 36.8488 35.6549C36.7315 35.4286 35.8 33.2174 35.4093 32.3186C35.0319 31.4428 34.6472 31.5601 34.3605 31.5456C34.0883 31.5335 33.7786 31.5299 33.4653 31.5299C33.1569 31.5299 32.65 31.6424 32.2218 32.0924C31.7948 32.5424 30.5887 33.6286 30.5887 35.8399C30.5887 38.0524 32.2605 40.1887 32.494 40.4887C32.7274 40.7875 35.7843 45.3274 40.4645 47.275C41.5774 47.7359 42.446 48.0129 43.1246 48.221C44.2423 48.5633 45.2597 48.5137 46.0629 48.3988C46.9581 48.2694 48.8234 47.3125 49.2105 46.2637C49.6 45.2149 49.6 44.3149 49.4839 44.1274C49.3702 43.9399 49.0581 43.8274 48.5911 43.6012Z" fill="white"/>
</svg>
